<svg xmlns="http://www.w3.org/2000/svg" xmlns:xlink="http://www.w3.org/1999/xlink" width="794" zoomAndPan="magnify" viewBox="0 0 595.5 842.249979" height="1123" preserveAspectRatio="xMidYMid meet" version="1.2"><defs><clipPath id="7dee3b3093"><path d="M 289 303.074219 L 312 303.074219 L 312 325 L 289 325 Z M 289 303.074219 "/></clipPath><clipPath id="7e1b581daf"><path d="M 293 515 L 309 515 L 309 538.453125 L 293 538.453125 Z M 293 515 "/></clipPath><clipPath id="8188b4a60e"><path d="M 178.507812 409 L 211 409 L 211 432 L 178.507812 432 Z M 178.507812 409 "/></clipPath><clipPath id="ff26831ad9"><path d="M 398 409 L 416.132812 409 L 416.132812 432 L 398 432 Z M 398 409 "/></clipPath><clipPath id="6e3250e990"><path d="M 178.507812 595 L 416.132812 595 L 416.132812 832.597656 L 178.507812 832.597656 Z M 178.507812 595 "/></clipPath><clipPath id="513b249deb"><path d="M 178.507812 595 L 416.132812 595 L 416.132812 832.597656 L 178.507812 832.597656 Z M 178.507812 595 "/></clipPath></defs><g id="33f8b2d68f"><path style=" stroke:none;fill-rule:nonzero;fill:#f1811f;fill-opacity:1;" d="M 383.65625 420.226562 C 383.628906 420.109375 383.589844 420.007812 383.550781 419.902344 C 383.511719 419.808594 383.484375 419.707031 383.433594 419.613281 C 383.382812 419.523438 383.304688 419.445312 383.238281 419.367188 C 383.171875 419.289062 383.105469 419.195312 383.015625 419.132812 C 382.9375 419.066406 382.847656 419.027344 382.753906 418.976562 C 382.648438 418.921875 382.558594 418.855469 382.441406 418.832031 C 382.414062 418.832031 382.390625 418.804688 382.363281 418.792969 L 320.007812 401.429688 L 302.644531 339.074219 C 302.644531 339.074219 302.621094 339.023438 302.605469 338.996094 C 302.566406 338.878906 302.515625 338.789062 302.449219 338.683594 C 302.398438 338.59375 302.359375 338.5 302.292969 338.421875 C 302.226562 338.332031 302.136719 338.265625 302.046875 338.1875 C 301.96875 338.121094 301.902344 338.058594 301.808594 338.003906 C 301.71875 337.953125 301.613281 337.914062 301.511719 337.875 C 301.40625 337.835938 301.316406 337.796875 301.210938 337.769531 C 301.183594 337.769531 301.15625 337.742188 301.117188 337.742188 C 301.039062 337.742188 300.949219 337.742188 300.871094 337.742188 C 300.792969 337.742188 300.699219 337.71875 300.621094 337.742188 C 300.597656 337.742188 300.570312 337.769531 300.53125 337.769531 C 300.425781 337.796875 300.335938 337.835938 300.242188 337.859375 C 300.140625 337.898438 300.023438 337.9375 299.929688 337.992188 C 299.851562 338.042969 299.789062 338.109375 299.707031 338.175781 C 299.617188 338.253906 299.527344 338.316406 299.460938 338.410156 C 299.394531 338.488281 299.355469 338.578125 299.304688 338.671875 C 299.253906 338.773438 299.1875 338.867188 299.148438 338.984375 C 299.148438 339.007812 299.121094 339.035156 299.109375 339.0625 L 281.746094 401.417969 L 219.390625 418.777344 C 219.390625 418.777344 219.339844 418.804688 219.3125 418.816406 C 219.207031 418.855469 219.105469 418.910156 219 418.960938 C 218.910156 419.015625 218.816406 419.054688 218.738281 419.117188 C 218.660156 419.183594 218.59375 419.261719 218.515625 419.351562 C 218.453125 419.433594 218.375 419.511719 218.320312 419.601562 C 218.269531 419.691406 218.242188 419.785156 218.203125 419.886719 C 218.164062 419.992188 218.113281 420.097656 218.097656 420.214844 C 218.097656 420.242188 218.074219 420.265625 218.074219 420.292969 C 218.074219 420.382812 218.074219 420.460938 218.074219 420.542969 C 218.074219 420.621094 218.046875 420.710938 218.074219 420.789062 C 218.074219 420.816406 218.097656 420.839844 218.097656 420.867188 C 218.125 420.984375 218.164062 421.089844 218.203125 421.195312 C 218.242188 421.285156 218.269531 421.390625 218.320312 421.480469 C 218.375 421.574219 218.453125 421.652344 218.515625 421.730469 C 218.582031 421.808594 218.648438 421.898438 218.738281 421.964844 C 218.816406 422.03125 218.910156 422.070312 219 422.121094 C 219.105469 422.171875 219.195312 422.238281 219.3125 422.265625 C 219.339844 422.265625 219.363281 422.289062 219.390625 422.304688 L 281.746094 439.664062 L 299.109375 502.019531 C 299.109375 502.019531 299.132812 502.074219 299.148438 502.097656 C 299.171875 502.191406 299.226562 502.253906 299.265625 502.347656 C 299.316406 502.453125 299.371094 502.554688 299.449219 502.648438 C 299.5 502.710938 299.566406 502.777344 299.628906 502.828125 C 299.722656 502.910156 299.800781 502.988281 299.90625 503.050781 C 299.984375 503.105469 300.046875 503.128906 300.140625 503.167969 C 300.257812 503.222656 300.375 503.261719 300.492188 503.285156 C 300.542969 503.285156 300.582031 503.324219 300.636719 503.339844 C 300.714844 503.339844 300.804688 503.351562 300.882812 503.351562 C 300.960938 503.351562 301.054688 503.351562 301.132812 503.339844 C 301.183594 503.339844 301.222656 503.300781 301.273438 503.285156 C 301.394531 503.261719 301.511719 503.222656 301.628906 503.167969 C 301.707031 503.128906 301.785156 503.089844 301.863281 503.050781 C 301.96875 502.988281 302.058594 502.910156 302.136719 502.828125 C 302.203125 502.765625 302.253906 502.710938 302.320312 502.648438 C 302.398438 502.554688 302.449219 502.453125 302.503906 502.347656 C 302.542969 502.269531 302.582031 502.191406 302.621094 502.097656 C 302.621094 502.074219 302.644531 502.046875 302.660156 502.019531 L 320.019531 439.664062 L 382.375 422.304688 C 382.375 422.304688 382.429688 422.277344 382.453125 422.265625 C 382.558594 422.226562 382.664062 422.171875 382.769531 422.121094 C 382.859375 422.070312 382.949219 422.03125 383.027344 421.964844 C 383.105469 421.898438 383.171875 421.820312 383.25 421.730469 C 383.316406 421.652344 383.394531 421.574219 383.445312 421.480469 C 383.5 421.390625 383.523438 421.296875 383.5625 421.195312 C 383.601562 421.089844 383.65625 420.984375 383.667969 420.867188 C 383.667969 420.839844 383.695312 420.816406 383.695312 420.789062 C 383.695312 420.699219 383.695312 420.621094 383.695312 420.542969 C 383.695312 420.460938 383.71875 420.371094 383.695312 420.292969 C 383.695312 420.265625 383.667969 420.242188 383.667969 420.214844 Z M 282.699219 436.140625 L 233.304688 422.394531 L 296.445312 422.394531 Z M 299.042969 416.128906 L 285.296875 402.382812 L 299.042969 353.003906 L 299.042969 416.140625 Z M 302.710938 488.117188 L 302.710938 424.980469 L 313.78125 436.046875 L 316.457031 438.726562 Z M 305.308594 418.726562 L 319.054688 404.980469 L 368.449219 418.726562 Z M 305.308594 418.726562 "/><g clip-rule="nonzero" clip-path="url(#7dee3b3093)"><path style=" stroke:none;fill-rule:nonzero;fill:#f1811f;fill-opacity:1;" d="M 294.761719 324.703125 L 298.519531 324.703125 L 298.519531 322.929688 L 294.761719 322.496094 L 294.761719 308.6875 L 306.339844 324.769531 L 309.121094 324.769531 L 309.121094 305.253906 L 311.925781 304.835938 L 311.925781 303.074219 L 303.246094 303.074219 L 303.246094 304.835938 L 307.003906 305.265625 L 307.003906 316.375 L 297.320312 303.074219 L 289.894531 303.074219 L 289.894531 304.863281 L 292.152344 305.058594 L 292.632812 305.738281 L 292.632812 322.535156 L 289.839844 322.929688 L 289.839844 324.703125 Z M 294.761719 324.703125 "/></g><g clip-rule="nonzero" clip-path="url(#7e1b581daf)"><path style=" stroke:none;fill-rule:nonzero;fill:#f1811f;fill-opacity:1;" d="M 302.828125 524.367188 L 301.289062 523.664062 C 299.332031 522.789062 298.300781 521.875 298.300781 520.140625 C 298.300781 518.402344 299.8125 517.148438 301.691406 517.148438 C 302.503906 517.148438 303.207031 517.320312 303.914062 517.605469 L 304.539062 521.46875 L 307.554688 521.46875 L 307.828125 516.863281 C 306.222656 515.804688 303.953125 515.191406 301.601562 515.191406 C 296.617188 515.191406 293.417969 517.59375 293.417969 521.546875 C 293.417969 525.191406 295.648438 527.148438 299.527344 528.910156 L 300.921875 529.550781 C 302.90625 530.4375 303.769531 531.222656 303.769531 532.957031 C 303.769531 534.691406 302.503906 536.089844 300.152344 536.089844 C 298.914062 536.089844 297.945312 535.882812 296.929688 535.488281 L 296.277344 531.429688 L 293.207031 531.429688 L 293.011719 536.324219 C 294.90625 537.5 297.6875 538.046875 300.152344 538.046875 C 305.777344 538.046875 308.753906 535.292969 308.753906 531.417969 C 308.753906 528.089844 307.03125 526.273438 302.828125 524.382812 Z M 302.828125 524.367188 "/></g><g clip-rule="nonzero" clip-path="url(#8188b4a60e)"><path style=" stroke:none;fill-rule:nonzero;fill:#f1811f;fill-opacity:1;" d="M 206.496094 409.707031 L 203.558594 409.707031 L 203.558594 411.480469 L 205.882812 411.847656 L 202.082031 425.226562 L 198.257812 411.820312 L 201.144531 411.480469 L 201.144531 409.707031 L 191.289062 409.707031 L 191.289062 411.480469 L 193.6875 411.769531 L 189.746094 425.070312 L 186.351562 411.742188 L 188.78125 411.480469 L 188.78125 409.707031 L 178.558594 409.707031 L 178.558594 411.480469 L 180.582031 411.691406 L 186.484375 431.402344 L 189.683594 431.402344 L 194.25 416.390625 L 198.910156 431.402344 L 202.121094 431.402344 L 207.945312 411.898438 L 210.515625 411.480469 L 210.515625 409.707031 Z M 206.496094 409.707031 "/></g><g clip-rule="nonzero" clip-path="url(#ff26831ad9)"><path style=" stroke:none;fill-rule:nonzero;fill:#f1811f;fill-opacity:1;" d="M 413.324219 425.699219 L 412.671875 429.535156 L 406.511719 429.535156 C 406.460938 426.792969 406.445312 424.011719 406.445312 421.179688 L 410.035156 421.179688 L 410.414062 423.738281 L 412.320312 423.738281 L 412.320312 416.652344 L 410.414062 416.652344 L 410.011719 419.234375 L 406.445312 419.234375 C 406.445312 416.652344 406.460938 414.105469 406.511719 411.601562 L 412.019531 411.601562 L 412.671875 415.410156 L 415.414062 415.410156 L 415.179688 409.746094 L 398.367188 409.746094 L 398.367188 411.507812 L 400.832031 411.769531 C 400.886719 414.496094 400.898438 417.238281 400.898438 419.953125 L 400.898438 421.167969 C 400.898438 423.933594 400.886719 426.664062 400.832031 429.351562 L 398.367188 429.613281 L 398.367188 431.375 L 415.832031 431.375 L 416.066406 425.710938 L 413.324219 425.710938 Z M 413.324219 425.699219 "/></g><path style=" stroke:none;fill-rule:nonzero;fill:#000000;fill-opacity:1;" d="M 297.320312 604.210938 C 236.921875 604.210938 187.722656 653.410156 187.722656 713.808594 C 187.722656 774.257812 236.871094 823.40625 297.320312 823.40625 C 357.769531 823.40625 406.917969 774.257812 406.917969 713.808594 C 406.917969 653.410156 357.769531 604.210938 297.320312 604.210938 Z M 297.320312 821.871094 C 237.664062 821.871094 189.308594 773.511719 189.308594 713.808594 C 189.308594 654.152344 237.664062 605.796875 297.320312 605.796875 C 356.976562 605.796875 405.382812 654.152344 405.382812 713.808594 C 405.382812 773.464844 356.976562 821.871094 297.320312 821.871094 Z M 297.320312 821.871094 "/><path style=" stroke:none;fill-rule:nonzero;fill:#000000;fill-opacity:1;" d="M 297.320312 797 C 251.441406 797 214.082031 759.691406 214.082031 713.757812 C 214.082031 667.828125 251.441406 630.570312 297.320312 630.570312 C 343.199219 630.570312 380.511719 667.878906 380.511719 713.757812 C 380.511719 759.640625 343.199219 797 297.320312 797 Z M 297.320312 632.15625 C 252.28125 632.15625 215.667969 668.769531 215.667969 713.808594 C 215.667969 758.847656 252.28125 795.460938 297.320312 795.460938 C 342.359375 795.460938 378.972656 758.847656 378.972656 713.808594 C 378.972656 668.769531 342.359375 632.15625 297.320312 632.15625 Z M 297.320312 632.15625 "/><path style=" stroke:none;fill-rule:nonzero;fill:#000000;fill-opacity:1;" d="M 297.320312 813.746094 C 242.222656 813.746094 197.382812 768.90625 197.382812 713.808594 C 197.382812 658.710938 242.222656 613.871094 297.320312 613.871094 C 352.417969 613.871094 397.257812 658.710938 397.257812 713.808594 C 397.257812 768.90625 352.417969 813.746094 297.320312 813.746094 Z M 297.320312 614.914062 C 242.816406 614.914062 198.425781 659.308594 198.425781 713.808594 C 198.425781 768.3125 242.769531 812.703125 297.320312 812.703125 C 351.820312 812.703125 396.214844 768.359375 396.214844 713.808594 C 396.214844 659.308594 351.820312 614.914062 297.320312 614.914062 Z M 297.320312 614.914062 "/><path style=" stroke:none;fill-rule:nonzero;fill:#000000;fill-opacity:1;" d="M 297.320312 808.742188 C 245 808.742188 202.386719 766.179688 202.386719 713.808594 C 202.386719 661.488281 244.949219 618.875 297.320312 618.875 C 349.640625 618.875 392.253906 661.4375 392.253906 713.808594 C 392.253906 766.128906 349.640625 808.742188 297.320312 808.742188 Z M 297.320312 619.917969 C 245.542969 619.917969 203.429688 662.03125 203.429688 713.808594 C 203.429688 765.585938 245.542969 807.699219 297.320312 807.699219 C 349.097656 807.699219 391.210938 765.585938 391.210938 713.808594 C 391.210938 662.03125 349.097656 619.917969 297.320312 619.917969 Z M 297.320312 619.917969 "/><path style=" stroke:none;fill-rule:nonzero;fill:#000000;fill-opacity:1;" d="M 299.945312 625.019531 C 299.945312 626.457031 298.757812 627.648438 297.320312 627.648438 C 295.882812 627.648438 294.695312 626.457031 294.695312 625.019531 C 294.695312 623.582031 295.882812 622.394531 297.320312 622.394531 C 298.757812 622.394531 299.945312 623.582031 299.945312 625.019531 Z M 280.128906 626.65625 C 280.472656 628.09375 279.582031 629.480469 278.144531 629.828125 C 276.707031 630.171875 275.320312 629.28125 274.972656 627.84375 C 274.628906 626.40625 275.519531 625.019531 276.957031 624.671875 C 278.394531 624.375 279.78125 625.21875 280.128906 626.65625 Z M 261.152344 632.652344 C 261.792969 633.9375 261.25 635.523438 259.910156 636.167969 C 258.625 636.8125 257.039062 636.269531 256.394531 634.929688 C 255.75 633.640625 256.296875 632.054688 257.632812 631.410156 C 258.96875 630.816406 260.554688 631.363281 261.152344 632.652344 Z M 244.007812 642.757812 C 244.898438 643.898438 244.75 645.53125 243.609375 646.472656 C 242.472656 647.414062 240.835938 647.21875 239.894531 646.078125 C 238.953125 644.9375 239.152344 643.304688 240.292969 642.363281 C 241.429688 641.421875 243.117188 641.617188 244.007812 642.757812 Z M 229.539062 656.382812 C 230.679688 657.277344 230.878906 658.960938 229.9375 660.101562 C 228.996094 661.238281 227.359375 661.4375 226.21875 660.496094 C 225.082031 659.605469 224.882812 657.917969 225.824219 656.78125 C 226.765625 655.691406 228.398438 655.492188 229.539062 656.382812 Z M 218.441406 672.933594 C 219.730469 673.578125 220.324219 675.113281 219.679688 676.449219 C 219.035156 677.738281 217.5 678.332031 216.160156 677.6875 C 214.875 677.046875 214.277344 675.507812 214.921875 674.171875 C 215.566406 672.832031 217.152344 672.289062 218.441406 672.933594 Z M 211.355469 691.464844 C 212.792969 691.808594 213.683594 693.199219 213.335938 694.632812 C 212.992188 696.070312 211.605469 696.964844 210.167969 696.617188 C 208.730469 696.269531 207.839844 694.882812 208.183594 693.445312 C 208.53125 692.058594 209.917969 691.164062 211.355469 691.464844 Z M 208.53125 711.183594 C 209.96875 711.183594 211.15625 712.371094 211.15625 713.808594 C 211.15625 715.246094 209.96875 716.433594 208.53125 716.433594 C 207.09375 716.433594 205.90625 715.246094 205.90625 713.808594 C 205.90625 712.371094 207.09375 711.183594 208.53125 711.183594 Z M 210.167969 731 C 211.605469 730.65625 212.992188 731.546875 213.335938 732.984375 C 213.683594 734.421875 212.792969 735.808594 211.355469 736.15625 C 209.917969 736.5 208.53125 735.609375 208.183594 734.171875 C 207.886719 732.734375 208.730469 731.300781 210.167969 731 Z M 216.160156 749.976562 C 217.449219 749.335938 219.035156 749.878906 219.679688 751.21875 C 220.324219 752.503906 219.777344 754.089844 218.441406 754.734375 C 217.152344 755.378906 215.566406 754.835938 214.921875 753.496094 C 214.328125 752.160156 214.875 750.574219 216.160156 749.976562 Z M 226.269531 767.121094 C 227.410156 766.230469 229.042969 766.378906 229.984375 767.519531 C 230.878906 768.65625 230.730469 770.292969 229.589844 771.234375 C 228.449219 772.125 226.816406 771.976562 225.875 770.835938 C 224.933594 769.699219 225.128906 768.011719 226.269531 767.121094 Z M 239.894531 781.589844 C 240.785156 780.449219 242.472656 780.25 243.609375 781.191406 C 244.75 782.085938 244.949219 783.769531 244.007812 784.910156 C 243.117188 786.046875 241.429688 786.246094 240.292969 785.304688 C 239.203125 784.363281 239.003906 782.730469 239.894531 781.589844 Z M 256.445312 792.6875 C 257.089844 791.398438 258.625 790.804688 259.960938 791.449219 C 261.25 792.09375 261.84375 793.628906 261.199219 794.96875 C 260.554688 796.253906 259.019531 796.851562 257.683594 796.207031 C 256.34375 795.5625 255.800781 793.976562 256.445312 792.6875 Z M 274.972656 799.773438 C 275.320312 798.335938 276.707031 797.492188 278.144531 797.792969 C 279.582031 798.136719 280.472656 799.527344 280.128906 800.960938 C 279.78125 802.398438 278.394531 803.242188 276.957031 802.945312 C 275.570312 802.597656 274.675781 801.210938 274.972656 799.773438 Z M 294.695312 802.597656 C 294.695312 801.160156 295.882812 799.972656 297.320312 799.972656 C 298.757812 799.972656 299.945312 801.160156 299.945312 802.597656 C 299.945312 804.035156 298.757812 805.222656 297.320312 805.222656 C 295.882812 805.222656 294.695312 804.035156 294.695312 802.597656 Z M 314.511719 800.960938 C 314.167969 799.527344 315.058594 798.136719 316.496094 797.792969 C 317.933594 797.445312 319.320312 798.335938 319.664062 799.773438 C 320.011719 801.210938 319.121094 802.597656 317.683594 802.945312 C 316.246094 803.242188 314.859375 802.398438 314.511719 800.960938 Z M 333.488281 794.96875 C 332.84375 793.679688 333.390625 792.09375 334.726562 791.449219 C 336.015625 790.804688 337.601562 791.351562 338.246094 792.6875 C 338.890625 793.976562 338.34375 795.5625 337.007812 796.207031 C 335.667969 796.800781 334.085938 796.253906 333.488281 794.96875 Z M 350.632812 784.859375 C 349.742188 783.71875 349.890625 782.085938 351.027344 781.144531 C 352.167969 780.25 353.804688 780.398438 354.746094 781.539062 C 355.636719 782.679688 355.488281 784.316406 354.347656 785.257812 C 353.210938 786.199219 351.523438 786 350.632812 784.859375 Z M 365.101562 771.234375 C 363.960938 770.34375 363.761719 768.65625 364.703125 767.519531 C 365.597656 766.378906 367.28125 766.179688 368.421875 767.121094 C 369.558594 768.011719 369.757812 769.699219 368.816406 770.835938 C 367.875 771.925781 366.238281 772.125 365.101562 771.234375 Z M 376.199219 754.683594 C 374.910156 754.042969 374.316406 752.503906 374.960938 751.167969 C 375.605469 749.878906 377.140625 749.285156 378.476562 749.929688 C 379.765625 750.574219 380.359375 752.109375 379.71875 753.445312 C 379.074219 754.785156 377.488281 755.328125 376.199219 754.683594 Z M 383.285156 736.15625 C 381.847656 735.808594 381.003906 734.421875 381.300781 732.984375 C 381.648438 731.546875 383.035156 730.703125 384.472656 731 C 385.910156 731.347656 386.753906 732.734375 386.457031 734.171875 C 386.109375 735.558594 384.722656 736.453125 383.285156 736.15625 Z M 386.109375 716.433594 C 384.671875 716.433594 383.484375 715.246094 383.484375 713.808594 C 383.484375 712.371094 384.671875 711.183594 386.109375 711.183594 C 387.546875 711.183594 388.734375 712.371094 388.734375 713.808594 C 388.734375 715.246094 387.546875 716.433594 386.109375 716.433594 Z M 384.472656 696.617188 C 383.035156 696.964844 381.648438 696.070312 381.300781 694.632812 C 380.957031 693.199219 381.847656 691.808594 383.285156 691.464844 C 384.722656 691.117188 386.109375 692.007812 386.457031 693.445312 C 386.753906 694.882812 385.910156 696.269531 384.472656 696.617188 Z M 378.476562 677.640625 C 377.191406 678.285156 375.605469 677.738281 374.960938 676.402344 C 374.316406 675.113281 374.863281 673.527344 376.199219 672.882812 C 377.488281 672.238281 379.074219 672.785156 379.71875 674.121094 C 380.3125 675.460938 379.765625 677.046875 378.476562 677.640625 Z M 368.371094 660.496094 C 367.230469 661.386719 365.597656 661.238281 364.65625 660.101562 C 363.761719 658.960938 363.910156 657.324219 365.050781 656.382812 C 366.191406 655.492188 367.824219 655.640625 368.765625 656.78125 C 369.707031 657.917969 369.511719 659.605469 368.371094 660.496094 Z M 354.746094 646.027344 C 353.851562 647.167969 352.167969 647.367188 351.027344 646.425781 C 349.890625 645.53125 349.691406 643.847656 350.632812 642.707031 C 351.574219 641.570312 353.210938 641.371094 354.347656 642.3125 C 355.4375 643.253906 355.636719 644.890625 354.746094 646.027344 Z M 338.195312 634.929688 C 337.550781 636.21875 336.015625 636.8125 334.679688 636.167969 C 333.390625 635.523438 332.796875 633.988281 333.441406 632.652344 C 334.085938 631.363281 335.621094 630.769531 336.957031 631.410156 C 338.296875 632.054688 338.839844 633.640625 338.195312 634.929688 Z M 319.664062 627.84375 C 319.320312 629.28125 317.933594 630.125 316.496094 629.828125 C 315.058594 629.480469 314.214844 628.09375 314.511719 626.65625 C 314.859375 625.21875 316.246094 624.328125 317.683594 624.671875 C 319.070312 625.019531 319.964844 626.40625 319.664062 627.84375 Z M 319.664062 627.84375 "/><path style=" stroke:none;fill-rule:nonzero;fill:#000000;fill-opacity:1;" d="M 297.320312 713.808594 L 314.5625 678.433594 L 346.171875 664.957031 Z M 297.320312 713.808594 L 261.945312 696.566406 L 248.464844 664.957031 Z M 297.320312 713.808594 L 280.078125 749.1875 L 248.464844 762.664062 Z M 297.320312 713.808594 L 332.695312 731.050781 L 346.171875 762.664062 Z M 297.320312 713.808594 "/><path style=" stroke:none;fill-rule:nonzero;fill:#000000;fill-opacity:1;" d="M 248.464844 763.457031 C 248.21875 763.457031 247.972656 763.355469 247.824219 763.109375 C 247.625 762.8125 247.675781 762.414062 247.921875 762.117188 L 296.03125 714.007812 L 261.597656 697.210938 C 261.449219 697.113281 261.300781 697.011719 261.199219 696.8125 L 247.722656 665.253906 C 247.574219 664.90625 247.675781 664.507812 248.019531 664.3125 C 248.316406 664.113281 248.714844 664.164062 249.011719 664.410156 L 297.121094 712.519531 L 313.917969 678.085938 C 314.015625 677.9375 314.117188 677.789062 314.316406 677.6875 L 345.925781 664.210938 C 346.273438 664.0625 346.667969 664.164062 346.867188 664.507812 C 347.066406 664.808594 347.015625 665.203125 346.769531 665.5 L 298.65625 713.609375 L 333.09375 730.40625 C 333.242188 730.507812 333.390625 730.605469 333.488281 730.804688 L 346.964844 762.414062 C 347.113281 762.761719 347.015625 763.15625 346.667969 763.355469 C 346.371094 763.554688 345.976562 763.503906 345.679688 763.257812 L 297.566406 715.148438 L 280.769531 749.582031 C 280.671875 749.730469 280.574219 749.878906 280.375 749.976562 L 248.765625 763.40625 C 248.664062 763.40625 248.566406 763.457031 248.464844 763.457031 Z M 294.59375 717.625 L 251.835938 760.382812 L 279.53125 748.589844 Z M 301.136719 716.535156 L 343.945312 759.34375 L 332.101562 731.644531 Z M 262.539062 695.972656 L 293.503906 711.082031 L 250.746094 668.324219 Z M 315.15625 679.027344 L 300.046875 709.992188 L 342.855469 667.183594 Z M 315.15625 679.027344 "/><path style=" stroke:none;fill-rule:nonzero;fill:#ffffff;fill-opacity:1;" d="M 297.320312 713.808594 L 333.589844 696.714844 L 346.171875 664.90625 Z M 297.320312 713.808594 L 314.414062 750.078125 L 346.222656 762.664062 Z M 297.320312 713.808594 L 261.050781 730.902344 L 248.464844 762.710938 Z M 297.320312 713.808594 L 280.226562 677.539062 L 248.417969 664.957031 Z M 297.320312 713.808594 "/><path style=" stroke:none;fill-rule:nonzero;fill:#000000;fill-opacity:1;" d="M 346.171875 763.457031 C 346.074219 763.457031 345.976562 763.457031 345.875 763.40625 L 314.066406 750.820312 C 313.867188 750.769531 313.71875 750.621094 313.671875 750.425781 L 297.074219 715.148438 L 248.960938 763.257812 C 248.714844 763.503906 248.316406 763.554688 247.972656 763.355469 C 247.675781 763.15625 247.523438 762.761719 247.675781 762.414062 L 260.257812 730.605469 C 260.308594 730.40625 260.457031 730.257812 260.65625 730.210938 L 295.933594 713.609375 L 247.824219 665.5 C 247.574219 665.253906 247.523438 664.855469 247.722656 664.507812 C 247.921875 664.210938 248.316406 664.0625 248.664062 664.210938 L 280.472656 676.796875 C 280.671875 676.847656 280.820312 676.996094 280.871094 677.195312 L 297.46875 712.472656 L 345.578125 664.359375 C 345.828125 664.113281 346.222656 664.0625 346.570312 664.261719 C 346.867188 664.460938 347.015625 664.855469 346.867188 665.203125 L 334.28125 697.011719 C 334.234375 697.210938 334.085938 697.359375 333.886719 697.410156 L 298.609375 714.007812 L 346.71875 762.117188 C 346.964844 762.363281 347.015625 762.761719 346.816406 763.109375 C 346.667969 763.304688 346.421875 763.457031 346.171875 763.457031 Z M 314.957031 749.484375 L 343.003906 760.582031 L 299.898438 717.476562 Z M 261.644531 731.449219 L 250.546875 759.492188 L 293.652344 716.386719 Z M 344.09375 668.125 L 300.988281 711.234375 L 332.992188 696.171875 Z M 251.636719 667.035156 L 294.742188 710.140625 L 279.679688 678.136719 Z M 251.636719 667.035156 "/><path style=" stroke:none;fill-rule:nonzero;fill:#000000;fill-opacity:1;" d="M 297.320312 713.808594 L 276.90625 693.394531 L 297.320312 595.789062 Z M 297.320312 713.808594 L 276.90625 734.222656 L 179.300781 713.808594 Z M 297.320312 713.808594 L 317.734375 734.222656 L 297.320312 831.832031 Z M 297.320312 713.808594 L 317.734375 693.394531 L 415.339844 713.808594 Z M 297.320312 713.808594 "/><g clip-rule="nonzero" clip-path="url(#6e3250e990)"><path style=" stroke:none;fill-rule:nonzero;fill:#000000;fill-opacity:1;" d="M 297.320312 832.574219 C 297.269531 832.574219 297.269531 832.574219 297.222656 832.574219 C 296.824219 832.523438 296.527344 832.175781 296.527344 831.832031 L 296.527344 715.691406 L 277.453125 734.765625 C 277.253906 734.964844 277.007812 735.015625 276.757812 734.964844 L 179.148438 714.550781 C 178.753906 714.453125 178.507812 714.105469 178.554688 713.710938 C 178.605469 713.3125 178.953125 713.015625 179.300781 713.015625 L 295.4375 713.015625 L 276.363281 693.941406 C 276.164062 693.742188 276.113281 693.496094 276.164062 693.246094 L 296.578125 595.640625 C 296.675781 595.242188 297.023438 594.996094 297.417969 595.042969 C 297.816406 595.09375 298.113281 595.441406 298.113281 595.789062 L 298.113281 711.925781 L 317.1875 692.851562 C 317.386719 692.652344 317.632812 692.601562 317.882812 692.652344 L 415.488281 713.066406 C 415.886719 713.164062 416.132812 713.511719 416.085938 713.90625 C 416.035156 714.304688 415.6875 714.601562 415.339844 714.601562 L 299.203125 714.601562 L 318.277344 733.675781 C 318.476562 733.875 318.527344 734.125 318.476562 734.371094 L 298.0625 831.980469 C 298.015625 832.324219 297.667969 832.574219 297.320312 832.574219 Z M 298.113281 715.691406 L 298.113281 824.347656 L 316.890625 734.46875 Z M 186.78125 714.601562 L 276.660156 733.378906 L 295.4375 714.601562 Z M 299.203125 713.015625 L 407.859375 713.015625 L 317.980469 694.238281 Z M 277.75 693.148438 L 296.527344 711.925781 L 296.527344 603.269531 Z M 277.75 693.148438 "/></g><path style=" stroke:none;fill-rule:nonzero;fill:#ffffff;fill-opacity:1;" d="M 297.320312 713.808594 L 317.734375 693.394531 L 297.320312 595.789062 Z M 297.320312 713.808594 L 317.734375 734.222656 L 415.339844 713.808594 Z M 297.320312 713.808594 L 276.90625 734.222656 L 297.320312 831.832031 Z M 297.320312 713.808594 L 276.90625 693.394531 L 179.300781 713.808594 Z M 297.320312 713.808594 "/><g clip-rule="nonzero" clip-path="url(#513b249deb)"><path style=" stroke:none;fill-rule:nonzero;fill:#000000;fill-opacity:1;" d="M 297.320312 832.574219 C 296.972656 832.574219 296.625 832.324219 296.578125 831.980469 L 276.164062 734.371094 C 276.113281 734.125 276.214844 733.824219 276.363281 733.675781 L 295.4375 714.601562 L 179.300781 714.601562 C 178.902344 714.601562 178.554688 714.304688 178.554688 713.90625 C 178.507812 713.511719 178.753906 713.164062 179.148438 713.066406 L 276.757812 692.652344 C 277.003906 692.601562 277.304688 692.703125 277.453125 692.851562 L 296.527344 711.925781 L 296.527344 595.789062 C 296.527344 595.390625 296.824219 595.042969 297.222656 595.042969 C 297.617188 595.042969 297.964844 595.292969 298.0625 595.640625 L 318.476562 693.246094 C 318.527344 693.496094 318.425781 693.792969 318.277344 693.941406 L 299.203125 713.015625 L 415.339844 713.015625 C 415.738281 713.015625 416.085938 713.3125 416.085938 713.710938 C 416.132812 714.105469 415.886719 714.453125 415.488281 714.550781 L 317.882812 734.964844 C 317.632812 735.015625 317.335938 734.917969 317.1875 734.765625 L 298.113281 715.691406 L 298.113281 831.832031 C 298.113281 832.226562 297.816406 832.574219 297.417969 832.574219 C 297.371094 832.574219 297.371094 832.574219 297.320312 832.574219 Z M 277.75 734.46875 L 296.527344 824.347656 L 296.527344 715.691406 Z M 299.203125 714.601562 L 317.980469 733.378906 L 407.859375 714.601562 Z M 186.78125 713.015625 L 295.4375 713.015625 L 276.660156 694.238281 Z M 298.113281 603.269531 L 298.113281 711.925781 L 316.890625 693.148438 Z M 298.113281 603.269531 "/></g><path style=" stroke:none;fill-rule:nonzero;fill:#ffffff;fill-opacity:1;" d="M 297.320312 605.746094 L 297.320312 614.367188 M 310.847656 606.636719 L 309.757812 615.210938 M 324.175781 609.164062 L 322.042969 617.539062 M 337.105469 613.328125 L 333.933594 621.355469 M 349.394531 619.125 L 345.230469 626.707031 M 360.839844 626.40625 L 355.734375 633.394531 M 371.292969 635.027344 L 365.398438 641.320312 M 380.558594 644.9375 L 373.921875 650.4375 M 388.535156 655.9375 L 381.253906 660.546875 M 395.078125 667.828125 L 387.25 671.496094 M 400.082031 680.414062 L 391.855469 683.089844 M 403.449219 693.542969 L 394.976562 695.179688 M 405.132812 707.019531 L 396.511719 707.566406 M 405.132812 720.597656 L 396.511719 720.050781 M 403.449219 734.074219 L 394.976562 732.4375 M 400.082031 747.203125 L 391.855469 744.527344 M 395.078125 759.789062 L 387.25 756.121094 M 388.535156 771.679688 L 381.253906 767.070312 M 380.558594 782.679688 L 373.921875 777.179688 M 371.292969 792.589844 L 365.398438 786.296875 M 360.839844 801.210938 L 355.734375 794.222656 M 349.394531 808.492188 L 345.230469 800.914062 M 337.105469 814.242188 L 333.933594 806.214844 M 324.175781 818.453125 L 322.042969 810.078125 M 310.847656 820.980469 L 309.757812 812.40625 M 297.320312 821.871094 L 297.320312 813.25 M 283.792969 820.980469 L 284.882812 812.40625 M 270.464844 818.453125 L 272.597656 810.078125 M 257.535156 814.242188 L 260.703125 806.214844 M 245.246094 808.492188 L 249.40625 800.914062 M 233.800781 801.210938 L 238.902344 794.222656 M 223.347656 792.589844 L 229.242188 786.296875 M 214.082031 782.679688 L 220.71875 777.179688 M 206.105469 771.679688 L 213.386719 767.070312 M 199.5625 759.789062 L 207.390625 756.121094 M 194.558594 747.203125 L 202.785156 744.527344 M 191.191406 734.074219 L 199.664062 732.4375 M 189.503906 720.597656 L 198.125 720.050781 M 189.503906 707.019531 L 198.125 707.566406 M 191.191406 693.542969 L 199.664062 695.179688 M 194.558594 680.414062 L 202.785156 683.089844 M 199.5625 667.828125 L 207.390625 671.496094 M 206.105469 655.9375 L 213.386719 660.546875 M 214.082031 644.9375 L 220.71875 650.4375 M 223.347656 635.027344 L 229.242188 641.320312 M 233.800781 626.40625 L 238.902344 633.394531 M 245.246094 619.125 L 249.40625 626.707031 M 257.535156 613.328125 L 260.703125 621.355469 M 270.464844 609.164062 L 272.597656 617.539062 M 283.792969 606.636719 L 284.882812 615.210938 "/><path style=" stroke:none;fill-rule:nonzero;fill:#000000;fill-opacity:1;" d="M 297.320312 822.367188 C 297.023438 822.367188 296.824219 822.117188 296.824219 821.871094 L 296.824219 813.25 C 296.824219 812.953125 297.074219 812.753906 297.320312 812.753906 C 297.617188 812.753906 297.816406 813.003906 297.816406 813.25 L 297.816406 821.871094 C 297.816406 822.117188 297.617188 822.367188 297.320312 822.367188 Z M 310.847656 821.523438 C 310.597656 821.523438 310.351562 821.328125 310.351562 821.078125 L 309.261719 812.507812 C 309.210938 812.210938 309.410156 811.960938 309.707031 811.914062 C 310.003906 811.863281 310.253906 812.0625 310.300781 812.359375 L 311.390625 820.929688 C 311.441406 821.226562 311.242188 821.476562 310.945312 821.523438 C 310.894531 821.523438 310.894531 821.523438 310.847656 821.523438 Z M 283.792969 821.523438 C 283.792969 821.523438 283.746094 821.523438 283.746094 821.523438 C 283.445312 821.476562 283.25 821.226562 283.296875 820.929688 L 284.386719 812.359375 C 284.4375 812.0625 284.636719 811.863281 284.984375 811.914062 C 285.28125 811.960938 285.476562 812.210938 285.429688 812.507812 L 284.339844 821.078125 C 284.238281 821.328125 284.042969 821.523438 283.792969 821.523438 Z M 324.175781 818.949219 C 323.925781 818.949219 323.730469 818.800781 323.679688 818.550781 L 321.546875 810.179688 C 321.5 809.878906 321.648438 809.632812 321.894531 809.535156 C 322.191406 809.484375 322.441406 809.632812 322.539062 809.878906 L 324.671875 818.253906 C 324.71875 818.550781 324.570312 818.800781 324.324219 818.898438 C 324.273438 818.949219 324.222656 818.949219 324.175781 818.949219 Z M 270.464844 818.949219 C 270.417969 818.949219 270.367188 818.949219 270.316406 818.949219 C 270.019531 818.898438 269.871094 818.601562 269.96875 818.304688 L 272.101562 809.929688 C 272.148438 809.632812 272.449219 809.484375 272.746094 809.582031 C 273.042969 809.632812 273.191406 809.929688 273.089844 810.226562 L 270.960938 818.601562 C 270.910156 818.800781 270.664062 818.949219 270.464844 818.949219 Z M 337.105469 814.785156 C 336.910156 814.785156 336.710938 814.6875 336.609375 814.4375 L 333.441406 806.414062 C 333.339844 806.164062 333.441406 805.867188 333.738281 805.769531 C 333.984375 805.667969 334.28125 805.816406 334.382812 806.066406 L 337.550781 814.09375 C 337.652344 814.339844 337.550781 814.636719 337.253906 814.738281 C 337.207031 814.785156 337.15625 814.785156 337.105469 814.785156 Z M 257.535156 814.785156 C 257.484375 814.785156 257.386719 814.785156 257.335938 814.738281 C 257.089844 814.636719 256.9375 814.339844 257.039062 814.09375 L 260.210938 806.066406 C 260.308594 805.816406 260.605469 805.667969 260.851562 805.769531 C 261.101562 805.867188 261.25 806.164062 261.152344 806.414062 L 257.980469 814.4375 C 257.929688 814.636719 257.730469 814.785156 257.535156 814.785156 Z M 349.394531 808.988281 C 349.195312 808.988281 349.046875 808.890625 348.949219 808.742188 L 344.785156 801.160156 C 344.636719 800.914062 344.738281 800.617188 344.984375 800.46875 C 345.230469 800.316406 345.53125 800.417969 345.679688 800.664062 L 349.839844 808.246094 C 349.988281 808.492188 349.890625 808.789062 349.640625 808.9375 C 349.542969 808.988281 349.445312 808.988281 349.394531 808.988281 Z M 245.246094 808.988281 C 245.148438 808.988281 245.097656 808.988281 245 808.9375 C 244.75 808.789062 244.652344 808.492188 244.800781 808.246094 L 248.960938 800.664062 C 249.109375 800.417969 249.40625 800.316406 249.65625 800.46875 C 249.902344 800.617188 250.003906 800.914062 249.855469 801.160156 L 245.691406 808.742188 C 245.640625 808.890625 245.445312 808.988281 245.246094 808.988281 Z M 360.839844 801.753906 C 360.691406 801.753906 360.542969 801.707031 360.441406 801.558594 L 355.339844 794.570312 C 355.191406 794.324219 355.242188 794.027344 355.4375 793.878906 C 355.6875 793.726562 355.984375 793.777344 356.132812 793.976562 L 361.234375 800.960938 C 361.382812 801.210938 361.335938 801.507812 361.136719 801.65625 C 361.039062 801.707031 360.9375 801.753906 360.839844 801.753906 Z M 233.800781 801.753906 C 233.703125 801.753906 233.601562 801.707031 233.503906 801.65625 C 233.253906 801.507812 233.207031 801.160156 233.40625 800.960938 L 238.507812 793.976562 C 238.65625 793.726562 239.003906 793.679688 239.203125 793.878906 C 239.449219 794.027344 239.5 794.371094 239.300781 794.570312 L 234.246094 801.507812 C 234.148438 801.65625 233.949219 801.753906 233.800781 801.753906 Z M 371.292969 793.085938 C 371.144531 793.085938 370.996094 793.035156 370.898438 792.9375 L 365 786.644531 C 364.804688 786.445312 364.804688 786.097656 365 785.898438 C 365.199219 785.703125 365.546875 785.703125 365.746094 785.898438 L 371.640625 792.191406 C 371.839844 792.390625 371.839844 792.738281 371.640625 792.9375 C 371.542969 793.035156 371.394531 793.085938 371.292969 793.085938 Z M 223.347656 793.085938 C 223.199219 793.085938 223.097656 793.035156 223 792.9375 C 222.800781 792.738281 222.800781 792.390625 223 792.191406 L 228.894531 785.898438 C 229.09375 785.703125 229.441406 785.703125 229.640625 785.898438 C 229.835938 786.097656 229.835938 786.445312 229.640625 786.644531 L 223.742188 792.9375 C 223.644531 793.035156 223.496094 793.085938 223.347656 793.085938 Z M 380.558594 783.175781 C 380.460938 783.175781 380.3125 783.125 380.210938 783.074219 L 373.574219 777.574219 C 373.375 777.378906 373.324219 777.082031 373.523438 776.832031 C 373.722656 776.632812 374.019531 776.585938 374.265625 776.785156 L 380.90625 782.28125 C 381.105469 782.480469 381.152344 782.777344 380.957031 783.027344 C 380.855469 783.125 380.707031 783.175781 380.558594 783.175781 Z M 214.082031 783.175781 C 213.933594 783.175781 213.785156 783.125 213.683594 782.976562 C 213.488281 782.777344 213.535156 782.433594 213.734375 782.234375 L 220.375 776.734375 C 220.570312 776.535156 220.917969 776.585938 221.117188 776.785156 C 221.316406 776.980469 221.265625 777.328125 221.066406 777.527344 L 214.429688 783.027344 C 214.277344 783.175781 214.179688 783.175781 214.082031 783.175781 Z M 388.535156 772.226562 C 388.4375 772.226562 388.339844 772.175781 388.238281 772.125 L 380.957031 767.519531 C 380.707031 767.371094 380.660156 767.070312 380.808594 766.824219 C 380.957031 766.578125 381.300781 766.527344 381.5 766.675781 L 388.785156 771.285156 C 389.03125 771.433594 389.082031 771.730469 388.933594 771.976562 C 388.882812 772.125 388.734375 772.226562 388.535156 772.226562 Z M 206.105469 772.226562 C 205.957031 772.226562 205.757812 772.125 205.65625 771.976562 C 205.507812 771.730469 205.558594 771.433594 205.804688 771.285156 L 213.089844 766.675781 C 213.335938 766.527344 213.636719 766.578125 213.785156 766.824219 C 213.933594 767.070312 213.882812 767.371094 213.636719 767.519531 L 206.351562 772.125 C 206.300781 772.175781 206.203125 772.226562 206.105469 772.226562 Z M 395.078125 760.332031 C 395.027344 760.332031 394.929688 760.332031 394.878906 760.285156 L 387.050781 756.617188 C 386.800781 756.519531 386.703125 756.171875 386.800781 755.925781 C 386.902344 755.675781 387.25 755.578125 387.496094 755.675781 L 395.324219 759.34375 C 395.570312 759.441406 395.671875 759.789062 395.570312 760.035156 C 395.472656 760.234375 395.273438 760.332031 395.078125 760.332031 Z M 199.5625 760.332031 C 199.367188 760.332031 199.167969 760.234375 199.117188 760.035156 C 199.019531 759.789062 199.117188 759.492188 199.367188 759.34375 L 207.195312 755.675781 C 207.441406 755.578125 207.738281 755.675781 207.886719 755.925781 C 207.988281 756.171875 207.886719 756.46875 207.640625 756.617188 L 199.8125 760.285156 C 199.710938 760.332031 199.613281 760.332031 199.5625 760.332031 Z M 400.082031 747.699219 C 400.03125 747.699219 399.980469 747.699219 399.933594 747.648438 L 391.707031 744.972656 C 391.460938 744.875 391.3125 744.578125 391.359375 744.328125 C 391.460938 744.082031 391.757812 743.882812 392.003906 743.984375 L 400.230469 746.660156 C 400.476562 746.757812 400.625 747.054688 400.578125 747.304688 C 400.476562 747.550781 400.277344 747.699219 400.082031 747.699219 Z M 194.558594 747.699219 C 194.359375 747.699219 194.164062 747.550781 194.0625 747.351562 C 193.964844 747.105469 194.113281 746.808594 194.410156 746.707031 L 202.636719 744.03125 C 202.882812 743.933594 203.179688 744.082031 203.28125 744.378906 C 203.378906 744.628906 203.230469 744.925781 202.933594 745.023438 L 194.707031 747.699219 C 194.660156 747.699219 194.609375 747.699219 194.558594 747.699219 Z M 403.449219 734.570312 C 403.402344 734.570312 403.402344 734.570312 403.351562 734.570312 L 394.878906 732.933594 C 394.582031 732.882812 394.433594 732.636719 394.480469 732.339844 C 394.53125 732.042969 394.828125 731.84375 395.078125 731.941406 L 403.550781 733.578125 C 403.847656 733.628906 403.996094 733.875 403.945312 734.171875 C 403.894531 734.421875 403.699219 734.570312 403.449219 734.570312 Z M 191.191406 734.570312 C 190.941406 734.570312 190.746094 734.421875 190.695312 734.171875 C 190.644531 733.875 190.84375 733.628906 191.089844 733.578125 L 199.5625 731.941406 C 199.859375 731.894531 200.109375 732.09375 200.160156 732.339844 C 200.207031 732.636719 200.007812 732.882812 199.761719 732.933594 L 191.289062 734.570312 C 191.238281 734.570312 191.238281 734.570312 191.191406 734.570312 Z M 405.132812 721.09375 L 396.464844 720.546875 C 396.167969 720.546875 395.96875 720.300781 395.96875 720.003906 C 395.96875 719.703125 396.214844 719.554688 396.511719 719.507812 L 405.132812 720.050781 C 405.433594 720.050781 405.628906 720.300781 405.628906 720.597656 C 405.628906 720.894531 405.433594 721.09375 405.132812 721.09375 Z M 189.503906 721.09375 C 189.257812 721.09375 189.011719 720.894531 189.011719 720.597656 C 189.011719 720.300781 189.207031 720.050781 189.503906 720.050781 L 198.125 719.507812 C 198.375 719.507812 198.671875 719.703125 198.671875 720.003906 C 198.671875 720.300781 198.472656 720.546875 198.175781 720.546875 Z M 396.511719 708.0625 C 396.265625 708.0625 396.019531 707.863281 396.019531 707.566406 C 396.019531 707.269531 396.214844 707.019531 396.511719 707.019531 L 405.132812 706.476562 C 405.433594 706.425781 405.679688 706.675781 405.679688 706.972656 C 405.679688 707.269531 405.480469 707.515625 405.183594 707.515625 L 396.511719 708.0625 C 396.5625 708.0625 396.511719 708.0625 396.511719 708.0625 Z M 198.125 708.0625 C 198.125 708.0625 198.078125 708.0625 198.125 708.0625 L 189.457031 707.515625 C 189.160156 707.515625 188.960938 707.269531 188.960938 706.972656 C 188.960938 706.675781 189.257812 706.425781 189.503906 706.476562 L 198.125 707.019531 C 198.425781 707.019531 198.621094 707.269531 198.621094 707.566406 C 198.621094 707.863281 198.375 708.0625 198.125 708.0625 Z M 394.976562 695.675781 C 394.730469 695.675781 394.53125 695.527344 394.480469 695.277344 C 394.433594 694.980469 394.628906 694.734375 394.878906 694.683594 L 403.351562 693.046875 C 403.648438 693 403.894531 693.199219 403.945312 693.445312 C 403.996094 693.742188 403.796875 693.988281 403.550781 694.039062 L 395.078125 695.675781 C 395.027344 695.675781 394.976562 695.675781 394.976562 695.675781 Z M 199.664062 695.675781 C 199.613281 695.675781 199.613281 695.675781 199.5625 695.675781 L 191.089844 694.039062 C 190.792969 693.988281 190.644531 693.742188 190.695312 693.445312 C 190.746094 693.148438 191.042969 692.949219 191.289062 693.046875 L 199.761719 694.683594 C 200.058594 694.734375 200.207031 694.980469 200.160156 695.277344 C 200.160156 695.527344 199.910156 695.675781 199.664062 695.675781 Z M 391.855469 683.585938 C 391.65625 683.585938 391.460938 683.4375 391.359375 683.238281 C 391.261719 682.992188 391.410156 682.695312 391.707031 682.59375 L 399.933594 679.917969 C 400.179688 679.820312 400.476562 679.96875 400.578125 680.265625 C 400.675781 680.511719 400.527344 680.8125 400.230469 680.910156 L 392.003906 683.585938 C 391.957031 683.585938 391.90625 683.585938 391.855469 683.585938 Z M 202.785156 683.585938 C 202.734375 683.585938 202.683594 683.585938 202.636719 683.535156 L 194.410156 680.859375 C 194.164062 680.761719 194.015625 680.464844 194.0625 680.214844 C 194.164062 679.96875 194.460938 679.769531 194.707031 679.871094 L 202.933594 682.542969 C 203.179688 682.644531 203.328125 682.941406 203.28125 683.1875 C 203.179688 683.484375 202.984375 683.585938 202.785156 683.585938 Z M 387.25 671.992188 C 387.050781 671.992188 386.851562 671.890625 386.800781 671.695312 C 386.703125 671.445312 386.800781 671.148438 387.050781 671 L 394.878906 667.332031 C 395.125 667.234375 395.421875 667.332031 395.570312 667.582031 C 395.671875 667.828125 395.570312 668.125 395.324219 668.273438 L 387.496094 671.941406 C 387.398438 671.992188 387.347656 671.992188 387.25 671.992188 Z M 207.390625 671.992188 C 207.292969 671.992188 207.242188 671.992188 207.195312 671.941406 L 199.367188 668.273438 C 199.117188 668.175781 199.019531 667.828125 199.117188 667.582031 C 199.21875 667.332031 199.5625 667.234375 199.8125 667.332031 L 207.640625 671 C 207.886719 671.097656 207.988281 671.445312 207.886719 671.695312 C 207.738281 671.890625 207.589844 671.992188 207.390625 671.992188 Z M 381.253906 661.042969 C 381.105469 661.042969 380.90625 660.941406 380.808594 660.792969 C 380.660156 660.546875 380.707031 660.25 380.957031 660.101562 L 388.238281 655.492188 C 388.488281 655.34375 388.785156 655.394531 388.933594 655.640625 C 389.082031 655.886719 389.03125 656.1875 388.785156 656.335938 L 381.5 660.941406 C 381.453125 661.042969 381.351562 661.042969 381.253906 661.042969 Z M 213.386719 661.042969 C 213.289062 661.042969 213.1875 660.992188 213.089844 660.941406 L 205.804688 656.335938 C 205.558594 656.1875 205.507812 655.886719 205.65625 655.640625 C 205.804688 655.394531 206.152344 655.34375 206.351562 655.492188 L 213.636719 660.101562 C 213.882812 660.25 213.933594 660.546875 213.785156 660.792969 C 213.734375 660.992188 213.585938 661.042969 213.386719 661.042969 Z M 373.921875 650.984375 C 373.769531 650.984375 373.621094 650.933594 373.523438 650.785156 C 373.324219 650.585938 373.375 650.238281 373.574219 650.042969 L 380.210938 644.542969 C 380.410156 644.34375 380.757812 644.394531 380.957031 644.589844 C 381.152344 644.789062 381.105469 645.136719 380.90625 645.335938 L 374.265625 650.835938 C 374.117188 650.933594 374.019531 650.984375 373.921875 650.984375 Z M 220.71875 650.984375 C 220.621094 650.984375 220.472656 650.933594 220.375 650.882812 L 213.734375 645.382812 C 213.535156 645.1875 213.488281 644.890625 213.683594 644.640625 C 213.882812 644.441406 214.179688 644.394531 214.429688 644.589844 L 221.066406 650.089844 C 221.265625 650.289062 221.316406 650.585938 221.117188 650.835938 C 221.019531 650.882812 220.867188 650.984375 220.71875 650.984375 Z M 365.347656 641.867188 C 365.199219 641.867188 365.101562 641.816406 365 641.71875 C 364.804688 641.519531 364.804688 641.171875 365 640.976562 L 370.898438 634.683594 C 371.097656 634.484375 371.441406 634.484375 371.640625 634.683594 C 371.839844 634.878906 371.839844 635.226562 371.640625 635.425781 L 365.746094 641.71875 C 365.644531 641.816406 365.496094 641.867188 365.347656 641.867188 Z M 229.292969 641.867188 C 229.144531 641.867188 228.996094 641.816406 228.894531 641.71875 L 223 635.375 C 222.800781 635.175781 222.800781 634.832031 223 634.632812 C 223.199219 634.433594 223.542969 634.433594 223.742188 634.632812 L 229.640625 640.925781 C 229.835938 641.125 229.835938 641.46875 229.640625 641.667969 C 229.539062 641.816406 229.390625 641.867188 229.292969 641.867188 Z M 355.734375 633.890625 C 355.636719 633.890625 355.539062 633.839844 355.4375 633.789062 C 355.191406 633.640625 355.140625 633.292969 355.339844 633.097656 L 360.394531 626.109375 C 360.542969 625.863281 360.890625 625.8125 361.085938 626.011719 C 361.335938 626.160156 361.382812 626.507812 361.1875 626.707031 L 356.082031 633.691406 C 356.082031 633.839844 355.886719 633.890625 355.734375 633.890625 Z M 238.902344 633.890625 C 238.753906 633.890625 238.605469 633.789062 238.507812 633.691406 L 233.40625 626.707031 C 233.253906 626.457031 233.304688 626.160156 233.503906 626.011719 C 233.75 625.863281 234.046875 625.914062 234.195312 626.109375 L 239.300781 633.097656 C 239.449219 633.34375 239.398438 633.640625 239.203125 633.789062 C 239.101562 633.890625 239.003906 633.890625 238.902344 633.890625 Z M 345.183594 627.199219 C 345.082031 627.199219 345.035156 627.199219 344.933594 627.152344 C 344.6875 627.003906 344.589844 626.707031 344.738281 626.457031 L 348.898438 618.875 C 349.046875 618.628906 349.34375 618.53125 349.59375 618.679688 C 349.839844 618.828125 349.9375 619.125 349.789062 619.371094 L 345.628906 626.953125 C 345.578125 627.101562 345.382812 627.199219 345.183594 627.199219 Z M 249.457031 627.199219 C 249.257812 627.199219 249.109375 627.101562 249.011719 626.953125 L 244.800781 619.371094 C 244.652344 619.125 244.75 618.828125 245 618.679688 C 245.246094 618.53125 245.542969 618.628906 245.691406 618.875 L 249.855469 626.457031 C 250.003906 626.707031 249.902344 627.003906 249.65625 627.152344 C 249.605469 627.199219 249.507812 627.199219 249.457031 627.199219 Z M 333.933594 621.898438 C 333.886719 621.898438 333.785156 621.898438 333.738281 621.847656 C 333.488281 621.75 333.339844 621.453125 333.441406 621.207031 L 336.609375 613.179688 C 336.710938 612.929688 337.007812 612.78125 337.253906 612.882812 C 337.503906 612.980469 337.652344 613.277344 337.550781 613.527344 L 334.382812 621.550781 C 334.332031 621.800781 334.132812 621.898438 333.933594 621.898438 Z M 260.703125 621.898438 C 260.507812 621.898438 260.308594 621.800781 260.210938 621.550781 L 257.039062 613.527344 C 256.9375 613.277344 257.039062 612.980469 257.335938 612.882812 C 257.582031 612.78125 257.878906 612.882812 257.980469 613.179688 L 261.152344 621.207031 C 261.25 621.453125 261.152344 621.75 260.851562 621.847656 C 260.851562 621.898438 260.804688 621.898438 260.703125 621.898438 Z M 322.042969 618.035156 C 321.996094 618.035156 321.945312 618.035156 321.894531 618.035156 C 321.597656 617.984375 321.449219 617.6875 321.546875 617.390625 L 323.679688 609.015625 C 323.730469 608.71875 324.027344 608.570312 324.324219 608.671875 C 324.621094 608.71875 324.769531 609.015625 324.671875 609.3125 L 322.539062 617.6875 C 322.488281 617.886719 322.292969 618.035156 322.042969 618.035156 Z M 272.597656 618.035156 C 272.347656 618.035156 272.148438 617.886719 272.101562 617.636719 L 269.96875 609.265625 C 269.921875 608.96875 270.070312 608.71875 270.316406 608.621094 C 270.613281 608.570312 270.863281 608.71875 270.960938 608.96875 L 273.089844 617.339844 C 273.140625 617.636719 272.992188 617.886719 272.746094 617.984375 C 272.695312 618.035156 272.644531 618.035156 272.597656 618.035156 Z M 309.757812 615.707031 C 309.757812 615.707031 309.707031 615.707031 309.707031 615.707031 C 309.410156 615.65625 309.210938 615.410156 309.261719 615.109375 L 310.351562 606.539062 C 310.402344 606.242188 310.597656 606.042969 310.945312 606.09375 C 311.242188 606.144531 311.441406 606.390625 311.390625 606.6875 L 310.300781 615.257812 C 310.253906 615.507812 310.054688 615.707031 309.757812 615.707031 Z M 284.882812 615.707031 C 284.636719 615.707031 284.386719 615.507812 284.386719 615.257812 L 283.296875 606.6875 C 283.25 606.390625 283.445312 606.144531 283.746094 606.09375 C 284.042969 606.042969 284.289062 606.242188 284.339844 606.539062 L 285.429688 615.109375 C 285.476562 615.410156 285.28125 615.65625 284.984375 615.707031 C 284.882812 615.707031 284.882812 615.707031 284.882812 615.707031 Z M 297.320312 614.914062 C 297.023438 614.914062 296.824219 614.664062 296.824219 614.417969 L 296.824219 605.746094 C 296.824219 605.449219 297.074219 605.25 297.320312 605.25 C 297.617188 605.25 297.816406 605.5 297.816406 605.746094 L 297.816406 614.367188 C 297.816406 614.714844 297.617188 614.914062 297.320312 614.914062 Z M 297.320312 614.914062 "/></g></svg>